<svg width="27" height="27" viewBox="0 0 27 27" fill="none" xmlns="http://www.w3.org/2000/svg">
<path d="M13.1659 23.04V14.2628M20.8459 8.77711L14.3283 4.12172C13.767 3.72076 13.4863 3.52029 13.1659 3.52029C12.8454 3.52029 12.5647 3.72076 12.0034 4.12172L5.48584 8.77711V16.525C5.48584 17.0296 5.48584 17.2819 5.59667 17.4972C5.7075 17.7126 5.91279 17.8592 6.32336 18.1525L13.1659 23.04L20.0084 18.1525C20.4189 17.8592 20.6242 17.7126 20.7351 17.4972C20.8459 17.2819 20.8459 17.0296 20.8459 16.525V8.77711ZM13.1659 14.2628L5.48584 8.77711M13.1659 14.2628L20.8459 8.77711" stroke="#0F3891" stroke-linejoin="round"/>
</svg>
