<svg width="15" height="15" viewBox="0 0 15 15" fill="none" xmlns="http://www.w3.org/2000/svg">
<path d="M12.0781 5.91772C12.0781 5.91772 11.7387 10.1271 11.5418 11.9002C11.4481 12.7471 10.9249 13.2433 10.0681 13.259C8.43743 13.2883 6.80493 13.2902 5.17493 13.2558C4.35055 13.239 3.83618 12.7365 3.7443 11.9046C3.54618 10.1158 3.20868 5.91772 3.20868 5.91772" stroke="#EEEEEE" stroke-width="1.5" stroke-linecap="round" stroke-linejoin="round"/>
<path d="M12.9426 3.8999H2.34387" stroke="#EEEEEE" stroke-width="1.5" stroke-linecap="round" stroke-linejoin="round"/>
<path d="M10.9004 3.89986C10.4097 3.89986 9.98724 3.55299 9.89099 3.07236L9.73911 2.31236C9.64536 1.96174 9.32786 1.71924 8.96599 1.71924H6.32036C5.95849 1.71924 5.64099 1.96174 5.54724 2.31236L5.39536 3.07236C5.29911 3.55299 4.87661 3.89986 4.38599 3.89986" stroke="#EEEEEE" stroke-width="1.5" stroke-linecap="round" stroke-linejoin="round"/>
</svg>
