<svg width="15" height="15" viewBox="0 0 15 15" fill="none" xmlns="http://www.w3.org/2000/svg">
<path d="M12.6981 2.59717C11.7421 2.1585 10.7169 1.8353 9.64494 1.65019C9.62541 1.64662 9.60592 1.65555 9.59586 1.6734C9.46401 1.90791 9.31796 2.21385 9.21568 2.45431C8.06275 2.28171 6.91574 2.28171 5.78645 2.45431C5.68415 2.2085 5.5328 1.90791 5.40036 1.6734C5.3903 1.65614 5.3708 1.64721 5.35128 1.65019C4.27994 1.83471 3.25473 2.1579 2.29808 2.59717C2.2898 2.60074 2.2827 2.6067 2.27799 2.61443C0.33337 5.51966 -0.199344 8.35348 0.0619876 11.1522C0.06317 11.1658 0.0708562 11.1789 0.0814988 11.1873C1.36451 12.1295 2.60732 12.7015 3.82705 13.0806C3.84657 13.0866 3.86725 13.0794 3.87968 13.0634C4.1682 12.6694 4.4254 12.2539 4.64592 11.817C4.65894 11.7914 4.64651 11.7611 4.61992 11.7509C4.21196 11.5962 3.8235 11.4075 3.44983 11.1932C3.42027 11.176 3.41791 11.1337 3.4451 11.1135C3.52373 11.0545 3.60239 10.9932 3.67747 10.9313C3.69106 10.92 3.70999 10.9176 3.72596 10.9248C6.1808 12.0456 8.83846 12.0456 11.2643 10.9248C11.2803 10.917 11.2992 10.9194 11.3134 10.9307C11.3885 10.9926 11.4672 11.0545 11.5464 11.1135C11.5736 11.1337 11.5718 11.176 11.5422 11.1932C11.1686 11.4117 10.7801 11.5962 10.3716 11.7503C10.345 11.7605 10.3331 11.7914 10.3462 11.817C10.5714 12.2533 10.8286 12.6687 11.1118 13.0628C11.1236 13.0794 11.1449 13.0866 11.1644 13.0806C12.3901 12.7015 13.6329 12.1295 14.9159 11.1873C14.9271 11.1789 14.9342 11.1664 14.9354 11.1528C15.2482 7.91717 14.4116 5.10659 12.7176 2.61502C12.7135 2.6067 12.7064 2.60074 12.6981 2.59717ZM5.01251 9.44805C4.27344 9.44805 3.66446 8.76952 3.66446 7.93622C3.66446 7.10292 4.26163 6.42439 5.01251 6.42439C5.7693 6.42439 6.37238 7.10888 6.36055 7.93622C6.36055 8.76952 5.76338 9.44805 5.01251 9.44805ZM9.99672 9.44805C9.25766 9.44805 8.64868 8.76952 8.64868 7.93622C8.64868 7.10292 9.24583 6.42439 9.99672 6.42439C10.7535 6.42439 11.3566 7.10888 11.3448 7.93622C11.3448 8.76952 10.7535 9.44805 9.99672 9.44805Z" fill="#0F3891"/>
</svg>
