<svg width="25" height="25" viewBox="0 0 25 25" fill="none" xmlns="http://www.w3.org/2000/svg">
<path d="M16.1664 23.8744L11.2235 21.5769C10.8965 21.4245 10.7538 21.0352 10.906 20.707L14.4036 13.1821C14.5558 12.8545 14.9456 12.7122 15.2729 12.8644L20.2158 15.1625C20.5434 15.3146 20.6855 15.7039 20.5336 16.0315L17.0356 23.5564C16.8833 23.8842 16.4937 24.026 16.1664 23.8745L16.1664 23.8744ZM4.23828 23.0533L0.956836 15.4315C0.813916 15.0997 0.967481 14.7145 1.29883 14.5718L2.92358 13.8722L4.95376 21.5016C5.14858 22.231 5.89712 22.6657 6.62695 22.4715L8.24512 22.0407L5.09839 23.3958C4.76646 23.5384 4.38125 23.3851 4.23833 23.0532L4.23828 23.0533ZM5.64326 21.3182L3.50928 13.2988C3.41626 12.9496 3.62461 12.5909 3.97324 12.4982L5.38389 12.123L5.21421 13.3859C5.11362 14.1336 5.63804 14.8226 6.38657 14.9234L9.69585 15.3694L8.34888 19.9072C8.20996 20.3749 8.33359 20.8587 8.63355 21.1998L6.44375 21.7821C6.09482 21.8752 5.73608 21.6674 5.64331 21.3183L5.64326 21.3182ZM10.1381 21.1208L9.47393 20.9234C9.12725 20.8203 8.92998 20.4564 9.03281 20.1098L11.3943 12.1547C11.4975 11.808 11.862 11.6107 12.2077 11.7133L14.2422 12.3178L14.2425 12.3175L14.248 12.3192L14.2422 12.3177C14.0376 12.4525 13.8674 12.6439 13.757 12.8815L10.2588 20.4073C10.1517 20.6384 10.1143 20.8845 10.1382 21.1207L10.1381 21.1208ZM9.90151 14.6776L6.48193 14.2167C6.12412 14.1682 5.87256 13.8386 5.9207 13.4804L7.02886 5.2563C7.07705 4.89839 7.40728 4.64693 7.76421 4.69498L13.167 5.4231C13.5246 5.47144 13.7764 5.80142 13.728 6.15894L13.0463 11.2186L12.4106 11.0298C11.6866 10.8146 10.9256 11.2284 10.711 11.9516L9.90161 14.6776H9.90151ZM22.2708 14.2544L21.9166 13.476L23.7437 12.6469L24.0967 13.4257L22.2708 14.2544ZM21.8141 12.8967L20.2129 9.37022C20.7736 9.23653 21.3044 8.99795 21.7767 8.66661L23.3746 12.1887L21.8141 12.8967V12.8967ZM17.7413 8.59224C15.7391 7.8025 14.7554 5.53633 15.5452 3.5335C16.3352 1.53189 18.602 0.547662 20.6039 1.33736C22.6063 2.1274 23.5897 4.3942 22.8003 6.39693C22.0099 8.39864 19.7435 9.38262 17.7412 8.59224H17.7413ZM21.959 6.06392C22.5661 4.52642 21.8106 2.78585 20.272 2.17901C18.7342 1.57222 16.9937 2.32769 16.3862 3.86573C15.7794 5.40381 16.5352 7.14503 18.0736 7.75147C19.6117 8.3584 21.3522 7.60289 21.959 6.06397L21.959 6.06392ZM20.489 5.2358C20.5847 4.13487 19.8721 3.148 18.8446 2.86016C19.0331 2.82442 19.2304 2.81348 19.4312 2.83077C20.6163 2.93331 21.4963 3.97784 21.394 5.16319C21.2925 6.33214 20.2751 7.20372 19.1105 7.12969C19.8608 6.81329 20.4143 6.10284 20.4889 5.2358H20.489Z" fill="#0F3891"/>
</svg>
