<svg width="16" height="16" viewBox="0 0 16 16" fill="none" xmlns="http://www.w3.org/2000/svg">
<path d="M14.6668 7.00008L8.5885 1.88146C8.42383 1.74279 8.21543 1.66675 8.00016 1.66675C7.7849 1.66675 7.5765 1.74279 7.41183 1.88146L1.3335 7.00008" stroke="white" stroke-width="1.5" stroke-linecap="round" stroke-linejoin="round"/>
<path d="M13.6668 3.33325V10.3333C13.6668 12.2189 13.6668 13.1617 13.081 13.7475C12.4952 14.3333 11.5524 14.3333 9.66683 14.3333H6.3335C4.44788 14.3333 3.50507 14.3333 2.91928 13.7475C2.3335 13.1617 2.3335 12.2189 2.3335 10.3333V6.33325" stroke="white" stroke-width="1.5" stroke-linecap="round" stroke-linejoin="round"/>
<path d="M10 14.3333V11C10 10.0572 10 9.5858 9.70713 9.29287C9.4142 9 8.9428 9 8 9C7.0572 9 6.58579 9 6.29289 9.29287C6 9.5858 6 10.0572 6 11V14.3333" stroke="white" stroke-width="1.5" stroke-linecap="round" stroke-linejoin="round"/>
</svg>
