<svg width="25" height="25" viewBox="0 0 25 25" fill="none" xmlns="http://www.w3.org/2000/svg">
<path d="M4.6875 10.693V6.25H20.3125V10.693C20.3125 14.0001 20.3125 15.6536 19.2955 16.6809C18.2785 17.7083 16.6417 17.7083 13.368 17.7083H11.632C8.3583 17.7083 6.72148 17.7083 5.70449 16.6809C4.6875 15.6536 4.6875 14.0001 4.6875 10.693Z" stroke="#0F3891" stroke-width="1.5" stroke-linecap="round" stroke-linejoin="round"/>
<path d="M4.6875 6.24992L5.4387 4.64736C6.0213 3.40448 6.31259 2.78304 6.90304 2.43315C7.49349 2.08325 8.25087 2.08325 9.76562 2.08325H15.2344C16.7492 2.08325 17.5065 2.08325 18.097 2.43315C18.6874 2.78304 18.9787 3.40448 19.5612 4.64736L20.3125 6.24992" stroke="#0F3891" stroke-width="1.5" stroke-linecap="round"/>
<path d="M10.9375 9.375H14.0625" stroke="#0F3891" stroke-width="1.5" stroke-linecap="round"/>
<path d="M12.5 20.3125V22.9167M12.5 20.3125H7.29165M12.5 20.3125H17.7083M7.29165 20.3125H4.68748C3.24924 20.3125 2.08331 21.4784 2.08331 22.9167M7.29165 20.3125V22.9167M17.7083 20.3125H20.3125C21.7507 20.3125 22.9166 21.4784 22.9166 22.9167M17.7083 20.3125V22.9167" stroke="#0F3891" stroke-width="1.5" stroke-linecap="round" stroke-linejoin="round"/>
</svg>
