<svg width="25" height="25" viewBox="0 0 25 25" fill="none" xmlns="http://www.w3.org/2000/svg">
<path d="M17.7083 11.2547C17.7083 10.8946 17.7083 10.7146 17.7625 10.5542C17.92 10.088 18.3352 9.90704 18.7512 9.71758C19.2188 9.50461 19.4525 9.39812 19.6842 9.37938C19.9472 9.3581 20.2106 9.41477 20.4354 9.54093C20.7334 9.70817 20.9413 10.026 21.1541 10.2844C22.1368 11.4779 22.628 12.0748 22.8078 12.7329C22.9529 13.264 22.9529 13.8194 22.8078 14.3504C22.5456 15.3103 21.7172 16.115 21.104 16.8598C20.7903 17.2407 20.6334 17.4313 20.4354 17.5424C20.2106 17.6685 19.9472 17.7252 19.6842 17.704C19.4525 17.6852 19.2188 17.5788 18.7512 17.3657C18.3352 17.1763 17.92 16.9954 17.7625 16.5292C17.7083 16.3688 17.7083 16.1888 17.7083 15.8286V11.2547Z" stroke="#0F3891" stroke-width="1.5"/>
<path d="M7.29168 11.2548C7.29168 10.8015 7.27895 10.394 6.91242 10.0752C6.7791 9.95928 6.60235 9.87876 6.24888 9.71776C5.78127 9.50477 5.54747 9.39829 5.3158 9.37955C4.62075 9.32334 4.2468 9.79772 3.84598 10.2846C2.86329 11.4781 2.37195 12.0749 2.19216 12.733C2.04707 13.2642 2.04707 13.8196 2.19216 14.3506C2.45439 15.3105 3.28284 16.1151 3.89606 16.86C4.2826 17.3295 4.65185 17.7578 5.3158 17.7042C5.54747 17.6854 5.78127 17.5789 6.24888 17.3659C6.60235 17.2049 6.7791 17.1244 6.91242 17.0084C7.27895 16.6897 7.29168 16.2823 7.29168 15.8289V11.2548Z" stroke="#0F3891" stroke-width="1.5"/>
<path d="M5.20834 9.375C5.20834 5.92322 8.47294 3.125 12.5 3.125C16.5271 3.125 19.7917 5.92322 19.7917 9.375" stroke="#0F3891" stroke-width="1.5" stroke-linecap="square" stroke-linejoin="round"/>
<path d="M19.7917 17.7083V18.5416C19.7917 20.3825 17.9261 21.8749 15.625 21.8749H13.5417" stroke="#0F3891" stroke-width="1.5" stroke-linecap="round" stroke-linejoin="round"/>
</svg>
