<svg width="20" height="20" viewBox="0 0 20 20" fill="none" xmlns="http://www.w3.org/2000/svg">
<path d="M3.95032 11.9738L5.57792 10.818C6.03704 10.492 6.50254 10.2735 7.03362 10.1321C7.64334 9.96967 7.91667 9.63701 7.91667 8.92584C7.91667 7.12191 12.0833 6.92996 12.0833 8.92584C12.0833 9.63701 12.3567 9.96967 12.9664 10.1321C13.5017 10.2746 13.9666 10.4945 14.4221 10.818L16.0497 11.9738C16.7862 12.4968 17.1289 12.7496 17.3202 13.1516C17.5 13.5298 17.5 13.9733 17.5 14.8603C17.5 16.4551 17.5 17.2525 17.0535 17.7637C16.5127 18.3828 15.1067 18.3296 14.2431 18.3296H5.75694C4.89331 18.3296 3.51591 18.4155 2.9465 17.7637C2.5 17.2525 2.5 16.4551 2.5 14.8603C2.5 13.9733 2.5 13.5298 2.67987 13.1516C2.87105 12.7496 3.21385 12.4968 3.95032 11.9738Z" stroke="#0F3891" stroke-width="1.5"/>
<path d="M11.6668 14.1667C11.6668 15.0872 10.9207 15.8333 10.0002 15.8333C9.07966 15.8333 8.3335 15.0872 8.3335 14.1667C8.3335 13.2462 9.07966 12.5 10.0002 12.5C10.9207 12.5 11.6668 13.2462 11.6668 14.1667Z" stroke="#0F3891" stroke-width="1.5"/>
<path d="M5.79996 3.08143C4.70126 3.39512 3.91137 3.78426 3.18855 4.25379C2.04416 4.99716 1.55353 6.3367 1.68823 7.62927C1.74516 8.17556 2.18371 8.43675 2.69225 8.29546C3.0786 8.18809 3.46557 8.08358 3.84951 7.9697C4.97239 7.63664 5.2365 7.23176 5.39254 6.08237L5.79996 3.08143ZM5.79996 3.08143C8.51534 2.30619 11.4843 2.30619 14.1998 3.08143M14.1998 3.08143C15.2984 3.39512 16.0883 3.78426 16.8111 4.25379C17.9555 4.99716 18.4462 6.3367 18.3114 7.62927C18.2545 8.17556 17.816 8.43675 17.3074 8.29546C16.9211 8.18809 16.5341 8.08358 16.1502 7.9697C15.0273 7.63664 14.7632 7.23176 14.6072 6.08237L14.1998 3.08143Z" stroke="#0F3891" stroke-width="1.5" stroke-linejoin="round"/>
</svg>
