<svg width="27" height="27" viewBox="0 0 27 27" fill="none" xmlns="http://www.w3.org/2000/svg">
<path d="M8.77722 17.5543L18.3444 16.7571C21.338 16.5077 22.01 15.8538 22.3418 12.8683L23.0401 6.58289" stroke="#0F3891" stroke-width="1.5" stroke-linecap="round"/>
<path d="M6.58289 6.58289H24.1372" stroke="#0F3891" stroke-width="1.5" stroke-linecap="round"/>
<path d="M6.58284 24.1372C7.79472 24.1372 8.77713 23.1548 8.77713 21.9429C8.77713 20.7311 7.79472 19.7487 6.58284 19.7487C5.37097 19.7487 4.38855 20.7311 4.38855 21.9429C4.38855 23.1548 5.37097 24.1372 6.58284 24.1372Z" stroke="#0F3891" stroke-width="1.5"/>
<path d="M18.6514 24.1372C19.8633 24.1372 20.8457 23.1548 20.8457 21.9429C20.8457 20.7311 19.8633 19.7487 18.6514 19.7487C17.4396 19.7487 16.4572 20.7311 16.4572 21.9429C16.4572 23.1548 17.4396 24.1372 18.6514 24.1372Z" stroke="#0F3891" stroke-width="1.5"/>
<path d="M8.77722 21.9429H16.4572" stroke="#0F3891" stroke-width="1.5" stroke-linecap="round"/>
<path d="M2.19434 2.19434H3.25418C4.29063 2.19434 5.19409 2.8796 5.44546 3.85644L8.70976 16.5412C8.87471 17.1822 8.73355 17.8613 8.32545 18.39L7.27646 19.7487" stroke="#0F3891" stroke-width="1.5" stroke-linecap="round"/>
</svg>
